<?xml version="1.0" encoding="UTF-8"?>
<svg xmlns="http://www.w3.org/2000/svg" xmlns:xlink="http://www.w3.org/1999/xlink" viewBox="0 0 48 48" width="48px" height="48px">
<g id="surface293686763">
<path style=" stroke:none;fill-rule:nonzero;fill:rgb(80.000001%,80.000001%,80.000001%);fill-opacity:1;" d="M 44.007812 27.121094 C 43.921875 24.683594 43.527344 22.246094 42.769531 19.921875 C 41.277344 15.328125 38.511719 11.136719 34.621094 8.242188 C 27.402344 2.859375 15.730469 0.863281 8.746094 7.6875 C 5.511719 10.855469 3.648438 15.441406 2.972656 19.867188 C 2.296875 24.308594 2.726562 29.054688 4.800781 33.09375 C 8.222656 39.757812 15.609375 44.878906 23.175781 44.617188 C 23.25 44.585938 23.335938 44.585938 23.429688 44.605469 C 23.570312 44.597656 23.699219 44.585938 23.839844 44.578125 C 23.945312 44.597656 24.046875 44.605469 24.148438 44.617188 C 24.234375 44.597656 24.328125 44.585938 24.402344 44.578125 C 24.796875 44.539062 25.191406 44.511719 25.585938 44.464844 C 26.304688 44.363281 27.019531 44.109375 27.75 44.128906 C 27.945312 44.089844 28.144531 44.042969 28.332031 44.015625 C 28.359375 44.015625 28.378906 44.007812 28.398438 43.996094 C 28.800781 43.914062 29.203125 43.820312 29.605469 43.726562 C 30.449219 43.527344 31.285156 43.292969 32.101562 43.011719 C 33.695312 42.460938 35.25 41.746094 36.675781 40.828125 C 39.394531 39.085938 41.699219 36.664062 42.9375 33.636719 C 43.800781 31.554688 44.082031 29.351562 44.007812 27.121094 Z M 34.726562 22.714844 C 33.964844 24.710938 32.277344 26.257812 30.507812 27.375 C 28.78125 28.453125 26.859375 29.257812 24.851562 29.652344 C 24.910156 30.890625 25.097656 32.128906 25.03125 33.375 C 24.964844 34.714844 24.253906 35.992188 23.082031 36.675781 C 21.929688 37.351562 20.53125 37.574219 19.226562 37.304688 C 17.550781 36.957031 16.5 35.851562 15.460938 34.566406 C 15.289062 34.359375 15.328125 34.152344 15.449219 34.003906 C 15.414062 33.777344 15.570312 33.542969 15.796875 33.449219 C 15.816406 33.421875 15.824219 33.414062 15.824219 33.414062 C 15.835938 33.402344 15.835938 33.394531 15.84375 33.375 C 15.917969 33.242188 15.992188 33.113281 16.070312 32.980469 C 16.246094 32.644531 16.40625 32.304688 16.566406 31.96875 C 16.820312 31.425781 17.054688 30.730469 17.464844 30.28125 C 17.832031 29.878906 18.402344 30.226562 18.355469 30.722656 C 18.347656 30.824219 18.375 30.929688 18.460938 30.992188 C 18.523438 31.039062 18.609375 31.03125 18.609375 31.058594 C 18.664062 30.992188 18.703125 30.890625 18.730469 30.804688 C 18.863281 30.429688 18.890625 30 18.917969 29.605469 C 18.984375 28.601562 18.992188 27.589844 18.964844 26.585938 C 18.910156 24.039062 18.570312 21.488281 18.5625 18.9375 C 18.5625 18.730469 18.65625 18.582031 18.796875 18.496094 C 18.898438 18.367188 19.058594 18.28125 19.273438 18.300781 C 20.914062 18.46875 22.554688 18.027344 24.195312 18.007812 C 24.460938 18.007812 24.75 18.1875 24.75 18.488281 L 24.75 19.070312 C 24.75 19.085938 24.75 19.105469 24.75 19.125 C 24.804688 19.199219 24.84375 19.292969 24.84375 19.425781 C 24.84375 20.851562 24.917969 22.273438 24.9375 23.699219 C 25.761719 23.617188 26.605469 23.523438 27.375 23.222656 C 28.414062 22.808594 29.242188 21.929688 29.484375 20.8125 C 29.726562 19.667969 29.398438 18.488281 28.6875 17.578125 C 27.132812 15.589844 24.617188 15.75 22.351562 15.898438 C 20.8125 16.003906 19.132812 16.105469 17.726562 16.808594 C 17.183594 17.082031 16.679688 17.503906 16.472656 18.09375 C 16.199219 18.851562 16.472656 19.714844 16.761719 20.429688 C 16.835938 20.625 16.761719 20.925781 16.566406 21.027344 C 15.796875 21.414062 15.046875 21.851562 14.296875 22.285156 C 13.847656 22.546875 13.386719 22.820312 12.957031 23.109375 C 12.804688 23.210938 12.65625 23.316406 12.515625 23.429688 C 12.507812 23.4375 12.496094 23.445312 12.488281 23.445312 C 12.476562 23.492188 12.460938 23.53125 12.429688 23.578125 C 12.347656 23.859375 12.066406 24.066406 11.746094 23.867188 C 9.917969 22.734375 9.570312 20.164062 9.695312 18.195312 C 9.804688 16.386719 10.507812 14.839844 11.898438 13.640625 C 13.425781 12.320312 15.414062 11.558594 17.371094 11.128906 C 19.320312 10.695312 21.300781 10.527344 23.289062 10.632812 C 25.554688 10.742188 27.871094 11.089844 29.960938 12.039062 C 30.917969 12.46875 31.894531 13.039062 32.625 13.808594 C 33.347656 14.570312 33.898438 15.449219 34.3125 16.40625 C 35.128906 18.328125 35.492188 20.691406 34.726562 22.714844 Z M 34.726562 22.714844 "/>
<path style=" stroke:none;fill-rule:nonzero;fill:rgb(100%,100%,100%);fill-opacity:1;" d="M 34.050781 19.40625 C 33.804688 17.34375 32.886719 15.179688 31.179688 13.921875 C 29.363281 12.582031 27.039062 12.019531 24.824219 11.773438 C 22.808594 11.550781 20.765625 11.558594 18.757812 11.898438 C 16.78125 12.226562 14.726562 12.816406 13.085938 13.996094 C 12.335938 14.53125 11.664062 15.207031 11.242188 16.03125 C 10.882812 16.734375 10.734375 17.503906 10.6875 18.28125 C 10.601562 19.613281 10.734375 21.636719 11.8125 22.648438 C 11.878906 22.59375 11.953125 22.539062 12.019531 22.492188 C 12.449219 22.171875 12.910156 21.890625 13.367188 21.617188 C 14.109375 21.179688 14.859375 20.746094 15.617188 20.34375 C 15.328125 19.492188 15.195312 18.570312 15.507812 17.699219 C 15.789062 16.902344 16.433594 16.3125 17.175781 15.929688 C 18.601562 15.179688 20.296875 15 21.882812 14.886719 C 24 14.738281 26.429688 14.492188 28.265625 15.769531 C 30.160156 17.082031 31.257812 19.761719 30.160156 21.929688 C 29.652344 22.929688 28.882812 23.71875 27.824219 24.140625 C 26.8125 24.542969 25.726562 24.65625 24.648438 24.757812 C 24.414062 24.777344 24.261719 24.675781 24.179688 24.515625 C 24.027344 24.449219 23.90625 24.320312 23.90625 24.09375 C 23.90625 22.566406 23.8125 21.027344 23.8125 19.5 C 23.8125 19.480469 23.8125 19.460938 23.8125 19.445312 C 23.757812 19.367188 23.71875 19.273438 23.71875 19.144531 L 23.71875 19.058594 C 22.339844 19.132812 20.980469 19.40625 19.59375 19.351562 C 19.621094 20.792969 19.753906 22.238281 19.847656 23.679688 C 19.960938 25.332031 19.960938 26.960938 19.960938 28.613281 C 19.960938 29.503906 20.023438 30.703125 19.539062 31.5 C 19.226562 31.996094 18.769531 32.210938 18.1875 32.007812 C 18.039062 31.949219 17.90625 31.875 17.792969 31.78125 C 17.785156 31.800781 17.773438 31.808594 17.773438 31.828125 C 17.570312 32.257812 17.363281 32.699219 17.148438 33.132812 C 17.007812 33.421875 16.78125 33.929688 16.480469 34.21875 C 17.316406 35.210938 18.1875 36.101562 19.527344 36.320312 C 20.597656 36.496094 21.777344 36.347656 22.679688 35.710938 C 24.75 34.238281 23.8125 31.398438 23.792969 29.257812 C 23.792969 28.941406 24.039062 28.753906 24.28125 28.726562 C 24.308594 28.714844 24.328125 28.707031 24.355469 28.707031 C 24.957031 28.601562 25.546875 28.460938 26.117188 28.273438 C 28.21875 27.601562 30.328125 26.53125 31.914062 24.976562 C 32.644531 24.261719 33.289062 23.445312 33.683594 22.492188 C 34.105469 21.515625 34.171875 20.4375 34.050781 19.40625 Z M 34.050781 19.40625 "/>
<path style=" stroke:none;fill-rule:nonzero;fill:rgb(0%,0%,0%);fill-opacity:1;" d="M 44.464844 22.78125 C 44.015625 20.410156 43.238281 18.101562 42.160156 15.9375 C 40.011719 11.625 36.636719 8.035156 32.410156 5.710938 C 28.320312 3.460938 23.597656 2.195312 18.917969 2.429688 C 14.25 2.671875 9.898438 4.714844 6.890625 8.324219 C 4.03125 11.757812 2.4375 16.292969 1.914062 20.679688 C 1.378906 25.125 1.996094 29.820312 4.117188 33.796875 C 7.773438 40.667969 15.441406 45.863281 23.324219 45.535156 C 23.914062 45.664062 24.601562 45.488281 25.191406 45.441406 C 25.601562 45.402344 26.015625 45.335938 26.417969 45.261719 C 26.457031 45.253906 26.503906 45.242188 26.539062 45.234375 C 26.570312 45.234375 26.597656 45.234375 26.625 45.234375 C 27.019531 45.1875 27.421875 45.121094 27.816406 45.054688 C 27.824219 45.054688 27.835938 45.054688 27.835938 45.054688 C 27.957031 45.066406 28.050781 45.046875 28.132812 44.992188 C 28.882812 44.839844 29.625 44.664062 30.367188 44.484375 C 31.40625 44.222656 32.429688 43.894531 33.429688 43.5 C 35.382812 42.742188 37.226562 41.691406 38.878906 40.398438 C 42.148438 37.808594 44.363281 34.105469 44.851562 29.933594 C 45.121094 27.582031 44.90625 25.117188 44.464844 22.78125 Z M 42.945312 33.628906 C 41.71875 36.648438 39.402344 39.066406 36.683594 40.820312 C 35.257812 41.738281 33.703125 42.449219 32.109375 43.003906 C 31.292969 43.285156 30.460938 43.519531 29.617188 43.714844 C 29.210938 43.808594 28.808594 43.902344 28.40625 43.988281 C 28.386719 43.996094 28.367188 44.007812 28.339844 44.007812 C 28.144531 44.042969 27.945312 44.082031 27.757812 44.117188 C 27.027344 44.089844 26.316406 44.351562 25.59375 44.457031 C 25.199219 44.511719 24.804688 44.53125 24.414062 44.570312 C 24.335938 44.578125 24.242188 44.585938 24.160156 44.605469 C 24.054688 44.597656 23.953125 44.585938 23.851562 44.570312 C 23.710938 44.578125 23.578125 44.585938 23.4375 44.597656 C 23.34375 44.578125 23.257812 44.578125 23.183594 44.605469 C 15.609375 44.867188 8.222656 39.75 4.808594 33.085938 C 2.738281 29.042969 2.304688 24.300781 2.980469 19.855469 C 3.65625 15.429688 5.523438 10.847656 8.757812 7.679688 C 15.730469 0.851562 27.414062 2.851562 34.621094 8.222656 C 38.511719 11.117188 41.277344 15.320312 42.769531 19.902344 C 43.527344 22.226562 43.921875 24.664062 44.007812 27.101562 C 44.082031 29.351562 43.800781 31.554688 42.945312 33.628906 Z M 42.945312 33.628906 "/>
<path style=" stroke:none;fill-rule:nonzero;fill:rgb(0%,0%,0%);fill-opacity:1;" d="M 34.292969 16.386719 C 33.882812 15.429688 33.328125 14.550781 32.605469 13.789062 C 31.875 13.023438 30.898438 12.460938 29.945312 12.019531 C 27.863281 11.070312 25.539062 10.726562 23.269531 10.613281 C 21.273438 10.507812 19.292969 10.679688 17.351562 11.109375 C 15.402344 11.550781 13.414062 12.300781 11.878906 13.621094 C 10.492188 14.820312 9.789062 16.367188 9.675781 18.179688 C 9.554688 20.148438 9.890625 22.714844 11.726562 23.851562 C 12.046875 24.046875 12.328125 23.839844 12.414062 23.558594 C 12.441406 23.523438 12.460938 23.476562 12.46875 23.429688 C 12.476562 23.417969 12.488281 23.417969 12.496094 23.410156 C 12.636719 23.296875 12.789062 23.195312 12.9375 23.089844 C 13.378906 22.800781 13.828125 22.527344 14.277344 22.265625 C 15.019531 21.824219 15.769531 21.394531 16.546875 21.007812 C 16.742188 20.90625 16.828125 20.605469 16.742188 20.410156 C 16.453125 19.695312 16.179688 18.835938 16.453125 18.074219 C 16.660156 17.484375 17.164062 17.0625 17.710938 16.789062 C 19.117188 16.085938 20.785156 15.984375 22.332031 15.882812 C 24.601562 15.730469 27.121094 15.570312 28.667969 17.558594 C 29.390625 18.476562 29.710938 19.648438 29.464844 20.792969 C 29.230469 21.910156 28.398438 22.789062 27.355469 23.203125 C 26.585938 23.511719 25.742188 23.605469 24.917969 23.679688 C 24.910156 22.257812 24.835938 20.832031 24.824219 19.40625 C 24.824219 19.285156 24.789062 19.179688 24.730469 19.105469 C 24.730469 19.085938 24.730469 19.070312 24.730469 19.050781 L 24.730469 18.46875 C 24.730469 18.179688 24.441406 17.992188 24.179688 17.992188 C 22.539062 18.007812 20.898438 18.449219 19.257812 18.28125 C 19.050781 18.261719 18.882812 18.347656 18.777344 18.476562 C 18.648438 18.570312 18.542969 18.710938 18.542969 18.917969 C 18.554688 21.46875 18.890625 24.019531 18.945312 26.570312 C 18.976562 27.570312 18.957031 28.585938 18.898438 29.585938 C 18.871094 29.980469 18.84375 30.414062 18.710938 30.789062 C 18.683594 30.863281 18.648438 30.964844 18.589844 31.039062 C 18.601562 31.011719 18.507812 31.023438 18.441406 30.976562 C 18.355469 30.910156 18.328125 30.804688 18.335938 30.703125 C 18.382812 30.207031 17.8125 29.859375 17.445312 30.261719 C 17.035156 30.710938 16.808594 31.40625 16.546875 31.949219 C 16.386719 32.289062 16.226562 32.632812 16.050781 32.960938 C 15.984375 33.09375 15.910156 33.226562 15.824219 33.355469 C 15.816406 33.375 15.804688 33.382812 15.804688 33.394531 C 15.804688 33.394531 15.796875 33.414062 15.777344 33.429688 C 15.554688 33.523438 15.394531 33.757812 15.429688 33.984375 C 15.308594 34.132812 15.273438 34.351562 15.441406 34.546875 C 16.492188 35.832031 17.539062 36.9375 19.210938 37.285156 C 20.511719 37.554688 21.917969 37.332031 23.0625 36.65625 C 24.226562 35.972656 24.945312 34.695312 25.011719 33.355469 C 25.070312 32.109375 24.882812 30.871094 24.835938 29.632812 C 26.839844 29.242188 28.761719 28.433594 30.488281 27.355469 C 32.257812 26.25 33.945312 24.695312 34.707031 22.695312 C 35.492188 20.691406 35.128906 18.328125 34.292969 16.386719 Z M 33.710938 22.480469 C 33.320312 23.4375 32.671875 24.253906 31.941406 24.964844 C 30.347656 26.523438 28.246094 27.589844 26.148438 28.265625 C 25.566406 28.453125 24.976562 28.59375 24.382812 28.695312 C 24.355469 28.695312 24.328125 28.707031 24.308594 28.714844 C 24.054688 28.742188 23.8125 28.929688 23.820312 29.25 C 23.839844 31.386719 24.789062 34.226562 22.707031 35.699219 C 21.804688 36.335938 20.625 36.488281 19.554688 36.308594 C 18.207031 36.09375 17.335938 35.203125 16.507812 34.210938 C 16.808594 33.917969 17.023438 33.414062 17.175781 33.121094 C 17.390625 32.691406 17.585938 32.25 17.804688 31.820312 C 17.8125 31.800781 17.8125 31.789062 17.820312 31.773438 C 17.933594 31.867188 18.066406 31.941406 18.214844 31.996094 C 18.796875 32.210938 19.257812 31.996094 19.566406 31.492188 C 20.054688 30.695312 19.988281 29.503906 19.988281 28.601562 C 19.988281 26.953125 19.988281 25.320312 19.875 23.671875 C 19.773438 22.226562 19.648438 20.785156 19.621094 19.339844 C 21 19.398438 22.367188 19.125 23.746094 19.050781 L 23.746094 19.132812 C 23.746094 19.257812 23.785156 19.359375 23.839844 19.433594 C 23.839844 19.453125 23.839844 19.472656 23.839844 19.492188 C 23.839844 21.019531 23.933594 22.554688 23.933594 24.085938 C 23.933594 24.308594 24.046875 24.441406 24.207031 24.507812 C 24.289062 24.65625 24.449219 24.769531 24.675781 24.75 C 25.753906 24.648438 26.839844 24.535156 27.851562 24.132812 C 28.914062 23.710938 29.671875 22.921875 30.1875 21.917969 C 31.292969 19.753906 30.195312 17.070312 28.292969 15.757812 C 26.445312 14.484375 24.027344 14.71875 21.910156 14.878906 C 20.324219 14.992188 18.636719 15.167969 17.203125 15.917969 C 16.460938 16.304688 15.816406 16.894531 15.535156 17.691406 C 15.226562 18.5625 15.355469 19.480469 15.648438 20.335938 C 14.878906 20.738281 14.128906 21.167969 13.398438 21.609375 C 12.9375 21.882812 12.476562 22.164062 12.046875 22.480469 C 11.980469 22.527344 11.914062 22.585938 11.839844 22.640625 C 10.773438 21.617188 10.632812 19.601562 10.714844 18.273438 C 10.761719 17.484375 10.921875 16.726562 11.269531 16.023438 C 11.679688 15.1875 12.367188 14.523438 13.117188 13.988281 C 14.757812 12.804688 16.820312 12.214844 18.789062 11.886719 C 20.785156 11.558594 22.835938 11.539062 24.851562 11.765625 C 27.066406 12.007812 29.390625 12.570312 31.210938 13.914062 C 32.914062 15.167969 33.835938 17.34375 34.078125 19.398438 C 34.171875 20.4375 34.105469 21.515625 33.710938 22.480469 Z M 33.710938 22.480469 "/>
</g>
</svg>
